<svg xmlns="http://www.w3.org/2000/svg" viewBox="0 0 264.18 260.79"><defs><style>.cls-1{fill:#231f20;}</style></defs><g id="Layer_2" data-name="Layer 2"><g id="Layer_1-2" data-name="Layer 1"><path class="cls-1" d="M161.13,22.35l4.8-15.79,1.17.36,2.23,15.93,10.65-12,1.21.37L176.41,27l-1.24-.37,3.9-12.87-9.79,11.11-1-.32-2-14.67-3.91,12.89Z" transform="translate(-3.1 -6.56)"/><path class="cls-1" d="M178.83,28.13l6.88-15L195,17.38l-.54,1.16-8.07-3.7-2.61,5.7,6.82,3.13-.53,1.17-6.83-3.13-2.66,5.8,8.08,3.7-.54,1.17Z" transform="translate(-3.1 -6.56)"/><path class="cls-1" d="M201.4,34.84a2.5,2.5,0,0,1-.88-1,2.42,2.42,0,0,1-.27-1.24,2.33,2.33,0,0,1,.41-1.25,2.39,2.39,0,0,1,1-.88,2.48,2.48,0,0,1,1.25-.24,2.55,2.55,0,0,1,1.24.44,2.28,2.28,0,0,1,.83.94,2.46,2.46,0,0,1-.17,2.47,2.42,2.42,0,0,1-1,.88,2.39,2.39,0,0,1-1.23.25A2.34,2.34,0,0,1,201.4,34.84Z" transform="translate(-3.1 -6.56)"/><path class="cls-1" d="M213.05,50.37a8,8,0,0,1-1.88-2.48,5.76,5.76,0,0,1-.58-2.69,5.3,5.3,0,0,1,.77-2.61l1.16.74a4.38,4.38,0,0,0-.42,3.15,5.8,5.8,0,0,0,1.84,3,6,6,0,0,0,2,1.27,3.7,3.7,0,0,0,2,.19,3,3,0,0,0,1.64-.94,2.69,2.69,0,0,0,.65-1.11,2.48,2.48,0,0,0,0-1.08,3.87,3.87,0,0,0-.31-1,8.35,8.35,0,0,0-.45-.85l-2.23-3.71a7.77,7.77,0,0,1-.68-1.44,4.81,4.81,0,0,1-.24-1.35,3.6,3.6,0,0,1,.23-1.26,4.11,4.11,0,0,1,2.84-2.4,4.65,4.65,0,0,1,2.49.18,6.88,6.88,0,0,1,2.48,1.51,7.24,7.24,0,0,1,1.76,2.42,5.46,5.46,0,0,1-.49,5.27l-1.17-.74a4.13,4.13,0,0,0,.73-2,4.42,4.42,0,0,0-.35-2.11,5.79,5.79,0,0,0-3.2-3,3.6,3.6,0,0,0-1.82-.15,2.63,2.63,0,0,0-1.46.81,2.08,2.08,0,0,0-.61,1.42,3.44,3.44,0,0,0,.33,1.45,12.25,12.25,0,0,0,.69,1.31l1.79,3c.16.28.35.63.56,1a5.83,5.83,0,0,1,.47,1.39,3.72,3.72,0,0,1-.06,1.62,3.94,3.94,0,0,1-1,1.69A4.5,4.5,0,0,1,218.94,52a4.13,4.13,0,0,1-1.91.29,5.56,5.56,0,0,1-2-.57A7.87,7.87,0,0,1,213.05,50.37Z" transform="translate(-3.1 -6.56)"/><path class="cls-1" d="M218.91,55.42l12.53-10.75.86,1-5.78,5,6.23,7.25,5.77-5,.87,1L226.86,64.68l-.86-1,5.77-5-6.22-7.26-5.78,5Z" transform="translate(-3.1 -6.56)"/><path class="cls-1" d="M227.83,65.91l17-4.25.91,1.37L235.2,77l-.77-1.16,10.08-13.43.36.56-16.26,4.09Zm4.8-.28,1-.69L238.36,72l-1.05.69Z" transform="translate(-3.1 -6.56)"/><path class="cls-1" d="M236,78.85l14.44-8,.64,1.16-14.44,8Z" transform="translate(-3.1 -6.56)"/><path class="cls-1" d="M238.25,82.66l15.07-6.72.54,1.22-9,14.49,12.93-5.76.54,1.21-15.08,6.72-.54-1.21,9.06-14.51-13,5.77Z" transform="translate(-3.1 -6.56)"/><path class="cls-1" d="M243.81,95.29l17.49.81.47,1.57-14.1,10.38-.4-1.34,13.51-10,.19.64-16.76-.76Zm4.67,1.12,1.2-.37,2.46,8.12-1.2.36Z" transform="translate(-3.1 -6.56)"/><path class="cls-1" d="M249.29,119.59a8,8,0,0,1,.14-3.11A5.94,5.94,0,0,1,250.7,114a5.44,5.44,0,0,1,2.27-1.51l.41,1.31a4.38,4.38,0,0,0-2.33,2.15,5.83,5.83,0,0,0-.48,3.46,6.08,6.08,0,0,0,.74,2.26,3.68,3.68,0,0,0,1.4,1.42,3,3,0,0,0,1.87.32,2.71,2.71,0,0,0,1.2-.44,2.52,2.52,0,0,0,.73-.8,3.9,3.9,0,0,0,.4-1c.09-.34.15-.65.2-.94l.66-4.28a6.8,6.8,0,0,1,.39-1.54,4.36,4.36,0,0,1,.68-1.2,3.34,3.34,0,0,1,1-.81,3.81,3.81,0,0,1,1.31-.42,4,4,0,0,1,2.4.38,4.82,4.82,0,0,1,1.81,1.73,7,7,0,0,1,.94,2.75,7.14,7.14,0,0,1-.2,3,5.5,5.5,0,0,1-1.36,2.34,5.68,5.68,0,0,1-2.38,1.41l-.43-1.32a4.09,4.09,0,0,0,1.85-1.08,4.53,4.53,0,0,0,1.08-1.85,5.23,5.23,0,0,0,.15-2.31,4.93,4.93,0,0,0-.69-2,3.64,3.64,0,0,0-1.3-1.29,2.57,2.57,0,0,0-1.63-.3,2,2,0,0,0-1.38.69,3.5,3.5,0,0,0-.68,1.33,13.1,13.1,0,0,0-.31,1.45l-.52,3.43c-.05.32-.13.71-.23,1.17a5.73,5.73,0,0,1-.54,1.37,3.57,3.57,0,0,1-1.07,1.2,3.9,3.9,0,0,1-1.83.68,4.59,4.59,0,0,1-2-.15,4,4,0,0,1-1.64-1,5.55,5.55,0,0,1-1.19-1.72A8.35,8.35,0,0,1,249.29,119.59Z" transform="translate(-3.1 -6.56)"/><path class="cls-1" d="M250.33,133.56a6.86,6.86,0,0,1,.72-3.31,5.69,5.69,0,0,1,2.14-2.29,6.43,6.43,0,0,1,3.28-.87l10.6-.17,0,1.33-10.33.16a5.68,5.68,0,0,0-2.41.52,4.76,4.76,0,0,0-1.61,1.26,5.28,5.28,0,0,0-.9,1.66,5.14,5.14,0,0,0-.27,1.69,5.53,5.53,0,0,0,.32,1.69,5.11,5.11,0,0,0,1,1.63,4.76,4.76,0,0,0,1.65,1.2,5.63,5.63,0,0,0,2.42.44l10.33-.17,0,1.33-10.6.17a6.44,6.44,0,0,1-3.3-.76,5.8,5.8,0,0,1-2.22-2.23A6.85,6.85,0,0,1,250.33,133.56Z" transform="translate(-3.1 -6.56)"/><path class="cls-1" d="M249.46,152.76l7-2.49.48,1.28-7.69,2.75Zm1.12-10.11,16.4,1.83-.68,6.19c0,.16-.05.33-.08.51a4.43,4.43,0,0,1-.14.58,4.43,4.43,0,0,1-3,3.17,5.54,5.54,0,0,1-2.35.22,5.35,5.35,0,0,1-3-1.32,4.28,4.28,0,0,1-1.41-2.89l-.11-.4.66-5.86-6.39-.72Zm7.53,2.17-.54,4.85q0,.21,0,.48c0,.18,0,.36,0,.55a3.12,3.12,0,0,0,.56,1.56,3.51,3.51,0,0,0,1.2,1,4.53,4.53,0,0,0,1.58.48,4.45,4.45,0,0,0,1.63-.12,3.4,3.4,0,0,0,1.4-.75,3.1,3.1,0,0,0,.89-1.4A4.58,4.58,0,0,0,265,151c0-.18.06-.33.07-.47l.54-4.85Z" transform="translate(-3.1 -6.56)"/><path class="cls-1" d="M248.7,156.67l16.2,3.14-.25,1.3L248.45,158Z" transform="translate(-3.1 -6.56)"/><path class="cls-1" d="M249.61,172.25a2.44,2.44,0,0,1,.7-1.12,2.51,2.51,0,0,1,1.13-.59,2.27,2.27,0,0,1,1.31.06,2.49,2.49,0,0,1,1.11.72,2.46,2.46,0,0,1,.48,2.45,2.34,2.34,0,0,1-.68,1.06,2.58,2.58,0,0,1-1.13.57,2.42,2.42,0,0,1-1.3-.08,2.42,2.42,0,0,1-1.68-1.82A2.22,2.22,0,0,1,249.61,172.25Z" transform="translate(-3.1 -6.56)"/><path class="cls-1" d="M240.77,182.78l14.54,7.81-.58,1.08-16.06-.95,9.69,12.8-.6,1.13-14.52-7.81.61-1.14,11.85,6.37-9-11.79.51-.95,14.78.95-11.87-6.37Z" transform="translate(-3.1 -6.56)"/><path class="cls-1" d="M231.6,199,245,208.7,239,217l-1-.75,5.21-7.19-5.07-3.69-4.41,6.08-1-.75,4.41-6.08-5.17-3.75L226.65,208l-1-.75Z" transform="translate(-3.1 -6.56)"/><path class="cls-1" d="M220.61,219.82a2.56,2.56,0,0,1,1.13-.68,2.64,2.64,0,0,1,1.28,0,2.44,2.44,0,0,1,1.14.65,2.39,2.39,0,0,1,.67,1.14,2.48,2.48,0,0,1,0,1.27,2.67,2.67,0,0,1-.67,1.14,2.36,2.36,0,0,1-1.09.63,2.41,2.41,0,0,1-1.25,0,2.52,2.52,0,0,1-1.14-.65,2.45,2.45,0,0,1-.67-1.13,2.56,2.56,0,0,1,0-1.26A2.43,2.43,0,0,1,220.61,219.82Z" transform="translate(-3.1 -6.56)"/><path class="cls-1" d="M203.11,228.21a8,8,0,0,1,2.79-1.36,5.86,5.86,0,0,1,2.76,0,5.32,5.32,0,0,1,2.41,1.27l-1,1a4.35,4.35,0,0,0-3-1,5.78,5.78,0,0,0-3.27,1.22A6.06,6.06,0,0,0,202.2,231a3.67,3.67,0,0,0-.57,1.91,2.94,2.94,0,0,0,.61,1.79,2.58,2.58,0,0,0,.95.85,2.7,2.7,0,0,0,1.05.26,4.07,4.07,0,0,0,1-.11c.33-.09.64-.18.92-.28l4.08-1.46a7.25,7.25,0,0,1,1.54-.39,4.44,4.44,0,0,1,1.37,0,3.41,3.41,0,0,1,1.19.47,4.12,4.12,0,0,1,1.8,3.25,4.69,4.69,0,0,1-.66,2.41,6.93,6.93,0,0,1-2,2.14,7.2,7.2,0,0,1-2.71,1.25,5.59,5.59,0,0,1-2.7-.09,5.49,5.49,0,0,1-2.38-1.42l.95-1a4.24,4.24,0,0,0,1.84,1.11,4.38,4.38,0,0,0,2.13.07,5.38,5.38,0,0,0,2.11-1,5.07,5.07,0,0,0,1.47-1.58,3.48,3.48,0,0,0,.51-1.76,2.51,2.51,0,0,0-.51-1.58A2.06,2.06,0,0,0,213,235a3.58,3.58,0,0,0-1.49,0,12,12,0,0,0-1.42.42l-3.26,1.18c-.31.11-.69.23-1.14.35a5.67,5.67,0,0,1-1.46.18,3.77,3.77,0,0,1-1.57-.36,4.15,4.15,0,0,1-1.47-1.29,4.56,4.56,0,0,1-.84-1.86,4.17,4.17,0,0,1,.09-1.92,5.81,5.81,0,0,1,.95-1.87A8.06,8.06,0,0,1,203.11,228.21Z" transform="translate(-3.1 -6.56)"/><path class="cls-1" d="M197,233l8.09,14.39L204,248l-3.73-6.63-8.33,4.68,3.73,6.64-1.16.65L186.37,239l1.16-.65,3.73,6.63,8.33-4.68-3.73-6.64Z" transform="translate(-3.1 -6.56)"/><path class="cls-1" d="M185,239.68l.83,17.49-1.52.62-11.65-13.07,1.3-.53,11.17,12.52-.61.26-.81-16.76Zm-.67,4.76.47,1.16-7.85,3.2-.47-1.16Z" transform="translate(-3.1 -6.56)"/><path class="cls-1" d="M170.67,245.16l5,15.74-1.25.4-5-15.74Z" transform="translate(-3.1 -6.56)"/><path class="cls-1" d="M166.49,246.59l3.61,16.11-1.3.29-12.42-11.73,3.09,13.81-1.3.29-3.6-16.1,1.29-.29,12.43,11.75-3.1-13.84Z" transform="translate(-3.1 -6.56)"/><path class="cls-1" d="M153,249.54l-4.24,17-1.63.15-7.4-15.87,1.39-.13,7.1,15.21-.66.06,4-16.28Zm-2,4.36.12,1.24-8.44.82-.12-1.25Z" transform="translate(-3.1 -6.56)"/><path class="cls-1" d="M128.13,250.16a8,8,0,0,1,3,.73,5.92,5.92,0,0,1,2.15,1.72,5.35,5.35,0,0,1,1,2.52l-1.36.15a4.4,4.4,0,0,0-1.67-2.7,5.71,5.71,0,0,0-3.29-1.14,6,6,0,0,0-2.37.28,3.72,3.72,0,0,0-1.66,1.11,3,3,0,0,0-.68,1.77,2.74,2.74,0,0,0,.2,1.26,2.68,2.68,0,0,0,.65.87,4.55,4.55,0,0,0,.87.58c.31.15.61.27.88.38l4.08,1.47a7,7,0,0,1,1.43.69,4.35,4.35,0,0,1,1,.89,3.5,3.5,0,0,1,.61,1.12,3.59,3.59,0,0,1,.16,1.37,3.92,3.92,0,0,1-.84,2.28,4.71,4.71,0,0,1-2,1.44,7,7,0,0,1-2.88.39,7.14,7.14,0,0,1-2.89-.77,5.47,5.47,0,0,1-2-1.79,5.56,5.56,0,0,1-.92-2.61L123,262a4,4,0,0,0,.71,2,4.41,4.41,0,0,0,1.6,1.42,5.38,5.38,0,0,0,2.23.6,5.11,5.11,0,0,0,2.15-.28,3.6,3.6,0,0,0,1.51-1,2.57,2.57,0,0,0,.62-1.55,2.09,2.09,0,0,0-.41-1.48,3.61,3.61,0,0,0-1.18-.93,12.58,12.58,0,0,0-1.36-.58L125.61,259c-.31-.11-.68-.26-1.1-.45a5.39,5.39,0,0,1-1.24-.79,3.68,3.68,0,0,1-1-1.29,4,4,0,0,1-.31-1.93,4.71,4.71,0,0,1,.54-2,4.11,4.11,0,0,1,1.3-1.42,5.78,5.78,0,0,1,1.92-.84A8.39,8.39,0,0,1,128.13,250.16Z" transform="translate(-3.1 -6.56)"/><path class="cls-1" d="M114.18,248.46a6.7,6.7,0,0,1,3.1,1.36,5.69,5.69,0,0,1,1.83,2.55,6.49,6.49,0,0,1,.21,3.39l-1.92,10.42-1.31-.24L118,255.79a5.61,5.61,0,0,0,0-2.46,4.65,4.65,0,0,0-.92-1.83,5.17,5.17,0,0,0-1.45-1.21,4.84,4.84,0,0,0-1.6-.6,5.26,5.26,0,0,0-1.73,0,5.18,5.18,0,0,0-1.78.62,4.79,4.79,0,0,0-1.51,1.38A5.61,5.61,0,0,0,108,254l-1.87,10.15-1.31-.24,1.92-10.42a6.52,6.52,0,0,1,1.4-3.09,5.67,5.67,0,0,1,2.62-1.73A6.7,6.7,0,0,1,114.18,248.46Z" transform="translate(-3.1 -6.56)"/><path class="cls-1" d="M105.25,246.93l-5,15.72-5.93-1.89-.49-.18a4.23,4.23,0,0,1-.54-.25,4.47,4.47,0,0,1-2.52-3.56,5.63,5.63,0,0,1,.26-2.35,5.3,5.3,0,0,1,1.89-2.72,4.28,4.28,0,0,1,3.11-.82l.41,0,5.62,1.79,2-6.12Zm-3.61,7L97,252.4l-.46-.12-.54-.1a3,3,0,0,0-1.64.24,3.31,3.31,0,0,0-1.25,1,4.24,4.24,0,0,0-.78,1.45,4.49,4.49,0,0,0-.21,1.62,3.54,3.54,0,0,0,.46,1.52,3,3,0,0,0,1.2,1.14,3.23,3.23,0,0,0,.49.25l.45.16L99.36,261Zm-6.08-10,1.06,7.38-1.36.22-1.17-8.08Z" transform="translate(-3.1 -6.56)"/><path class="cls-1" d="M91.87,242.32l-6.28,15.26-1.22-.5,6.28-15.26Z" transform="translate(-3.1 -6.56)"/><path class="cls-1" d="M76.42,240.13a2.45,2.45,0,0,1,1,.91,2.59,2.59,0,0,1,.36,1.22,2.34,2.34,0,0,1-.32,1.27,2.36,2.36,0,0,1-.93.95,2.41,2.41,0,0,1-1.23.33,2.51,2.51,0,0,1-1.27-.35,2.26,2.26,0,0,1-.89-.87,2.46,2.46,0,0,1-.34-1.22,2.4,2.4,0,0,1,.33-1.26,2.45,2.45,0,0,1,.91-1,2.48,2.48,0,0,1,1.21-.34A2.29,2.29,0,0,1,76.42,240.13Z" transform="translate(-3.1 -6.56)"/><path class="cls-1" d="M67.83,229.39,57.32,242.12l-.94-.79,4.08-15.56-14.46,7L45,232l10.5-12.71,1,.82L48,230.44,61.27,224l.83.68L58.27,239l8.58-10.39Z" transform="translate(-3.1 -6.56)"/><path class="cls-1" d="M53.72,217.23,41.61,228.44,34.68,221l.94-.87,6,6.52,4.6-4.26-5.1-5.51,1-.87,5.09,5.51,4.69-4.34-6-6.52.94-.87Z" transform="translate(-3.1 -6.56)"/><path class="cls-1" d="M35.44,202.36a2.5,2.5,0,0,1,.21,2.49,2.52,2.52,0,0,1-2.11,1.43,2.45,2.45,0,0,1-1.25-.26,2.57,2.57,0,0,1-1-.88,2.29,2.29,0,0,1-.4-1.18,2.44,2.44,0,0,1,.24-1.24,2.52,2.52,0,0,1,.86-1,2.49,2.49,0,0,1,1.24-.44,2.4,2.4,0,0,1,1.24.24A2.35,2.35,0,0,1,35.44,202.36Z" transform="translate(-3.1 -6.56)"/><path class="cls-1" d="M28.86,179.51a8,8,0,0,1,.67,3,6,6,0,0,1-.6,2.69,5.48,5.48,0,0,1-1.8,2l-.74-1.16a4.38,4.38,0,0,0,1.7-2.68A6.55,6.55,0,0,0,26.36,178a3.65,3.65,0,0,0-1.72-1,3,3,0,0,0-1.89.17,2.7,2.7,0,0,0-1,.74,2.46,2.46,0,0,0-.5,1,4.07,4.07,0,0,0-.14,1c0,.34,0,.66.05,1l.47,4.3a7.1,7.1,0,0,1,0,1.59,4.48,4.48,0,0,1-.35,1.33,3.34,3.34,0,0,1-.74,1,3.5,3.5,0,0,1-1.16.74,3.85,3.85,0,0,1-2.42.25,4.77,4.77,0,0,1-2.19-1.2,7.46,7.46,0,0,1-2.19-5.35,5.5,5.5,0,0,1,.71-2.6,5.65,5.65,0,0,1,1.94-2l.75,1.16a4.1,4.1,0,0,0-1.51,1.53,4.37,4.37,0,0,0-.56,2,5.35,5.35,0,0,0,.44,2.28,5,5,0,0,0,1.2,1.8,3.6,3.6,0,0,0,1.58.91,2.59,2.59,0,0,0,1.67-.13,2.09,2.09,0,0,0,1.15-1,3.42,3.42,0,0,0,.31-1.46,13.74,13.74,0,0,0-.07-1.48l-.38-3.45c0-.32-.06-.72-.08-1.19a5.42,5.42,0,0,1,.17-1.46,3.69,3.69,0,0,1,.72-1.44,3.87,3.87,0,0,1,1.6-1.12,4.54,4.54,0,0,1,2-.39,4.35,4.35,0,0,1,1.85.54,5.94,5.94,0,0,1,1.59,1.36A8.13,8.13,0,0,1,28.86,179.51Z" transform="translate(-3.1 -6.56)"/><path class="cls-1" d="M25.66,172.49,9.78,177l-.36-1.27,7.33-2.06-2.6-9.2L6.83,166.5l-.36-1.28,15.88-4.48.36,1.28-7.32,2.07,2.59,9.2,7.33-2.07Z" transform="translate(-3.1 -6.56)"/><path class="cls-1" d="M22,159.21,4.79,155.9l-.24-1.62L20,146l.21,1.38L5.4,155.33l-.1-.66,16.48,3.16Zm-4.47-1.77-1.23.19L15,149.24l1.23-.19Z" transform="translate(-3.1 -6.56)"/><path class="cls-1" d="M20,144,3.55,145.17l-.09-1.31,16.46-1.15Z" transform="translate(-3.1 -6.56)"/><path class="cls-1" d="M19.6,139.64l-16.5-.27,0-1.33,14.31-9.32-14.16-.23,0-1.33,16.51.26,0,1.33L5.44,138.08l14.18.23Z" transform="translate(-3.1 -6.56)"/><path class="cls-1" d="M19.87,125.82,4.32,117.76l.23-1.62,17.15-3.53L21.51,114,5.07,117.39l.09-.66,14.9,7.7Zm-3.78-3-1.24-.17,1.17-8.4,1.24.17Z" transform="translate(-3.1 -6.56)"/><path class="cls-1" d="M25.05,101.48a8,8,0,0,1-1.42,2.76,6,6,0,0,1-2.18,1.69,5.29,5.29,0,0,1-2.69.42l.17-1.36a4.38,4.38,0,0,0,3-1,5.86,5.86,0,0,0,1.88-2.93,6.13,6.13,0,0,0,.28-2.38,3.8,3.8,0,0,0-.69-1.87,3,3,0,0,0-1.56-1.07,2.59,2.59,0,0,0-1.27-.1,2.42,2.42,0,0,0-1,.42,4,4,0,0,0-.77.71c-.22.27-.41.53-.57.77l-2.39,3.62a7,7,0,0,1-1,1.23,4.55,4.55,0,0,1-1.12.8,3.31,3.31,0,0,1-1.23.33,3.67,3.67,0,0,1-1.37-.16,4,4,0,0,1-2-1.36A4.7,4.7,0,0,1,8.2,99.7a7.07,7.07,0,0,1,.3-2.9,7.18,7.18,0,0,1,1.42-2.62,5.48,5.48,0,0,1,5-1.84l-.16,1.38a4.05,4.05,0,0,0-2.14.21,4.45,4.45,0,0,0-1.74,1.22,5.3,5.3,0,0,0-1.11,2,5.13,5.13,0,0,0-.24,2.15,3.61,3.61,0,0,0,.65,1.71,2.55,2.55,0,0,0,1.36,1,2.07,2.07,0,0,0,1.54-.05,3.38,3.38,0,0,0,1.18-.93,13.84,13.84,0,0,0,.88-1.18L17,97c.18-.27.41-.59.7-1a5.16,5.16,0,0,1,1.06-1,3.71,3.71,0,0,1,1.47-.65,3.94,3.94,0,0,1,1.95.15,4.64,4.64,0,0,1,1.79,1,4.13,4.13,0,0,1,1.08,1.6,5.9,5.9,0,0,1,.35,2.06A8.14,8.14,0,0,1,25.05,101.48Z" transform="translate(-3.1 -6.56)"/><path class="cls-1" d="M30,88.34a6.77,6.77,0,0,1-2,2.69A5.66,5.66,0,0,1,25,92.21a6.32,6.32,0,0,1-3.34-.6L12,87.29l.54-1.21L22,90.29a5.76,5.76,0,0,0,2.4.55,4.74,4.74,0,0,0,2-.47,5.3,5.3,0,0,0,2.48-2.54,5.39,5.39,0,0,0,.42-1.67,5.06,5.06,0,0,0-.18-1.88,4.83,4.83,0,0,0-1-1.79,5.54,5.54,0,0,0-2-1.41l-9.43-4.21.54-1.22L26.86,80a6.43,6.43,0,0,1,2.67,2.09,5.69,5.69,0,0,1,1.07,3A6.91,6.91,0,0,1,30,88.34Z" transform="translate(-3.1 -6.56)"/><path class="cls-1" d="M33.57,80,19.46,71.42,22.7,66.1c.08-.14.18-.28.28-.44a5,5,0,0,1,.37-.46,4.43,4.43,0,0,1,4.06-1.61,5.47,5.47,0,0,1,2.22.8,5.33,5.33,0,0,1,2.21,2.48,4.29,4.29,0,0,1,.05,3.21l-.07.4-3.06,5,5.49,3.34Zm-5.92-5.14,2.54-4.17c.07-.12.14-.25.22-.42s.16-.32.23-.5a3.15,3.15,0,0,0,.15-1.65,3.27,3.27,0,0,0-.66-1.44,4.44,4.44,0,0,0-1.22-1.1A4.32,4.32,0,0,0,27.38,65a3.5,3.5,0,0,0-1.58.08,3.1,3.1,0,0,0-1.4.9c-.13.14-.24.28-.35.42a4.72,4.72,0,0,0-.27.4L21.25,71Zm11.2-3.54-7.43-.71.11-1.37,8.12.76Z" transform="translate(-3.1 -6.56)"/><path class="cls-1" d="M41.18,68.09,27.81,58.41l.77-1.07L42,67Z" transform="translate(-3.1 -6.56)"/><path class="cls-1" d="M50.12,50.24a2.49,2.49,0,0,1-1.13.67,2.6,2.6,0,0,1-1.27,0,2.29,2.29,0,0,1-1.14-.66,2.39,2.39,0,0,1-.67-1.14,2.52,2.52,0,0,1,0-1.28,2.6,2.6,0,0,1,.67-1.13,2.34,2.34,0,0,1,1.09-.62,2.46,2.46,0,0,1,2.39.66,2.4,2.4,0,0,1,.67,1.13,2.45,2.45,0,0,1,0,1.26A2.36,2.36,0,0,1,50.12,50.24Z" transform="translate(-3.1 -6.56)"/><path class="cls-1" d="M61.1,40.51a2.5,2.5,0,0,1-2.47.39,2.37,2.37,0,0,1-1.06-.79,2.46,2.46,0,0,1-.52-1.21,2.56,2.56,0,0,1,.17-1.26,2.64,2.64,0,0,1,.81-1,2.35,2.35,0,0,1,1.15-.48,2.47,2.47,0,0,1,1.26.15,2.57,2.57,0,0,1,1.56,2,2.42,2.42,0,0,1-.15,1.25A2.39,2.39,0,0,1,61.1,40.51Z" transform="translate(-3.1 -6.56)"/><path class="cls-1" d="M73.19,32.17a2.51,2.51,0,0,1-2.5.09,2.31,2.31,0,0,1-1-.91,2.37,2.37,0,0,1-.37-1.27,2.51,2.51,0,0,1,.32-1.23,2.7,2.7,0,0,1,.93-.94,2.35,2.35,0,0,1,1.21-.34,2.54,2.54,0,0,1,2.53,2.48,2.59,2.59,0,0,1-.3,1.22A2.35,2.35,0,0,1,73.19,32.17Z" transform="translate(-3.1 -6.56)"/><path class="cls-1" d="M86.19,25.38a2.5,2.5,0,0,1-1.3.23,2.61,2.61,0,0,1-1.2-.44,2.39,2.39,0,0,1-.83-1,2.44,2.44,0,0,1,.26-2.49,2.59,2.59,0,0,1,1-.82,2.37,2.37,0,0,1,1.23-.19,2.55,2.55,0,0,1,1.18.45,2.49,2.49,0,0,1,.59,3.49A2.27,2.27,0,0,1,86.19,25.38Z" transform="translate(-3.1 -6.56)"/><path class="cls-1" d="M99.93,20.23a2.6,2.6,0,0,1-1.32.07,2.51,2.51,0,0,1-1.13-.59,2.49,2.49,0,0,1-.75-2.44,2.48,2.48,0,0,1,1.74-1.79,2.31,2.31,0,0,1,1.25-.05,2.42,2.42,0,0,1,1.11.6,2.55,2.55,0,0,1,.69,1.11,2.38,2.38,0,0,1,0,1.32,2.48,2.48,0,0,1-.58,1.11A2.5,2.5,0,0,1,99.93,20.23Z" transform="translate(-3.1 -6.56)"/><path class="cls-1" d="M114.19,16.81a2.61,2.61,0,0,1-1.31-.1,2.46,2.46,0,0,1-1.62-1.91,2.44,2.44,0,0,1,.12-1.32,2.48,2.48,0,0,1,.74-1,2.53,2.53,0,0,1,1.21-.54,2.28,2.28,0,0,1,1.24.11,2.41,2.41,0,0,1,1,.72,2.46,2.46,0,0,1,.55,1.19,2.4,2.4,0,0,1-.11,1.31,2.46,2.46,0,0,1-1.85,1.57Z" transform="translate(-3.1 -6.56)"/><path class="cls-1" d="M128.77,15.15a2.66,2.66,0,0,1-1.3-.26,2.49,2.49,0,0,1-1-.84,2.42,2.42,0,0,1-.42-1.25,2.48,2.48,0,0,1,2.4-2.62,2.36,2.36,0,0,1,1.23.26,2.45,2.45,0,0,1,.93.85,2.59,2.59,0,0,1,.14,2.53,2.63,2.63,0,0,1-.84.94A2.51,2.51,0,0,1,128.77,15.15Z" transform="translate(-3.1 -6.56)"/><path class="cls-1" d="M143.43,15.26a2.52,2.52,0,0,1-1.25-.42,2.48,2.48,0,0,1-.85-.94,2.53,2.53,0,0,1,.17-2.55,2.52,2.52,0,0,1,2.27-1.06,2.36,2.36,0,0,1,1.18.41,2.46,2.46,0,0,1,.83,1,2.43,2.43,0,0,1,.24,1.29A2.4,2.4,0,0,1,144.66,15,2.35,2.35,0,0,1,143.43,15.26Z" transform="translate(-3.1 -6.56)"/></g></g></svg>