<svg xmlns="http://www.w3.org/2000/svg" viewBox="0 0 265.69 265.33"><defs><style>.cls-1{fill:#231f20;}</style></defs><g id="Layer_2" data-name="Layer 2"><g id="Layer_1-2" data-name="Layer 1"><path class="cls-1" d="M168.65,25.65a7.77,7.77,0,0,1-3.83-2.32,7,7,0,0,1-1.64-3.79,11.49,11.49,0,0,1,.46-4.74,11.55,11.55,0,0,1,2.17-4.24,7.16,7.16,0,0,1,3.42-2.31,7.82,7.82,0,0,1,4.48.12A7.43,7.43,0,0,1,178,11.24,7.78,7.78,0,0,1,179.24,16l-1.47-.07a6.46,6.46,0,0,0-1-3.89,5.93,5.93,0,0,0-3.44-2.34,6,6,0,0,0-3.66-.06,5.89,5.89,0,0,0-2.8,2,10.5,10.5,0,0,0-1.81,3.6,10,10,0,0,0-.46,4,6,6,0,0,0,1.3,3.2A6.08,6.08,0,0,0,169,24.34a5.89,5.89,0,0,0,4.16-.12,6.5,6.5,0,0,0,2.94-2.72l1.28.73a7.76,7.76,0,0,1-3.63,3.29A7.4,7.4,0,0,1,168.65,25.65Z" transform="translate(-3.19 -3.35)"/><path class="cls-1" d="M183.75,31.27A7.16,7.16,0,0,1,181,29.1a5.82,5.82,0,0,1-1.21-3.05,6.74,6.74,0,0,1,.64-3.5l4.6-10.1,1.27.57-4.48,9.85a5.82,5.82,0,0,0-.59,2.5,4.86,4.86,0,0,0,.47,2.09,5.27,5.27,0,0,0,1.16,1.6,5.61,5.61,0,0,0,1.48,1,5.84,5.84,0,0,0,1.75.45,5.27,5.27,0,0,0,2-.18,4.83,4.83,0,0,0,1.88-1,5.71,5.71,0,0,0,1.5-2.09l4.48-9.84,1.27.57-4.6,10.11a6.69,6.69,0,0,1-2.2,2.77,6,6,0,0,1-3.1,1.1A7.19,7.19,0,0,1,183.75,31.27Z" transform="translate(-3.19 -3.35)"/><path class="cls-1" d="M192.42,35.09l9.17-14.65,5.52,3.46.46.3a5.48,5.48,0,0,1,.48.39,4.85,4.85,0,0,1,1.39,2,4.72,4.72,0,0,1,.24,2.3,5.87,5.87,0,0,1-.86,2.31,5.6,5.6,0,0,1-2.63,2.28,4.51,4.51,0,0,1-3.37,0l-.42-.08-5.24-3.28-3.57,5.71ZM197.88,29l4.34,2.71c.12.08.26.16.43.25l.52.24a3.28,3.28,0,0,0,1.73.18,3.52,3.52,0,0,0,1.52-.67,4.51,4.51,0,0,0,1.16-1.26,4.46,4.46,0,0,0,.63-1.6,3.58,3.58,0,0,0-.06-1.66,3.23,3.23,0,0,0-.92-1.47,3.75,3.75,0,0,0-.44-.37c-.15-.12-.29-.21-.41-.29l-4.33-2.71Zm3.57,11.77.84-7.77,1.43.14-.9,8.49Z" transform="translate(-3.19 -3.35)"/><path class="cls-1" d="M204.52,42.86l10.91-13.4,5,4.12a4.23,4.23,0,0,1,.41.36,3.71,3.71,0,0,1,.43.45,4.64,4.64,0,0,1,1.09,4.44A5.94,5.94,0,0,1,221.27,41a5.53,5.53,0,0,1-2.89,1.93,4.46,4.46,0,0,1-3.34-.4l-.41-.12-4.79-3.91-4.25,5.23Zm6.17-5.4,4,3.23.4.3.49.3a3.16,3.16,0,0,0,1.69.39,3.62,3.62,0,0,0,1.59-.47,4.67,4.67,0,0,0,1.31-1.12,4.59,4.59,0,0,0,.82-1.5,3.55,3.55,0,0,0,.14-1.65,3.13,3.13,0,0,0-.73-1.58,3.88,3.88,0,0,0-.39-.42c-.13-.13-.26-.25-.37-.34l-4-3.22Zm2.08,12.12,1.8-7.6,1.4.31L214,50.61Z" transform="translate(-3.19 -3.35)"/><path class="cls-1" d="M215.56,52.12,228,40.1l7.43,7.67-1,.94L228,42l-4.71,4.56,5.47,5.65-1,.93-5.47-5.64-4.8,4.65L224,58.86l-1,.93Z" transform="translate(-3.19 -3.35)"/><path class="cls-1" d="M224.57,61.57l13.8-10.4.84,1.11L233.4,69.19l11.83-8.92.84,1.11-13.8,10.4-.84-1.11,5.83-16.92-11.85,8.93Z" transform="translate(-3.19 -3.35)"/><path class="cls-1" d="M236.15,78.32,250,70.42,246.91,65l1.17-.67,6.83,12-1.17.66-3.07-5.37-13.84,7.9Z" transform="translate(-3.19 -3.35)"/><path class="cls-1" d="M242.41,91.77a8.39,8.39,0,0,1-.7-3.18,6.18,6.18,0,0,1,.63-2.82,5.65,5.65,0,0,1,1.88-2.14l.77,1.21a4.65,4.65,0,0,0-1.77,2.82,6,6,0,0,0,.45,3.62A6.36,6.36,0,0,0,245,93.37a3.89,3.89,0,0,0,1.8,1,3.1,3.1,0,0,0,2-.18,2.7,2.7,0,0,0,1.09-.77,2.6,2.6,0,0,0,.52-1,4.08,4.08,0,0,0,.14-1.09c0-.36,0-.7-.05-1l-.49-4.5a7.22,7.22,0,0,1,0-1.67,4.58,4.58,0,0,1,.37-1.39,3.33,3.33,0,0,1,.77-1.09,3.71,3.71,0,0,1,1.21-.78,4.13,4.13,0,0,1,2.53-.26,4.92,4.92,0,0,1,2.29,1.26,7.12,7.12,0,0,1,1.7,2.53,7.46,7.46,0,0,1,.61,3.06,5.75,5.75,0,0,1-.75,2.73,5.84,5.84,0,0,1-2,2.08l-.78-1.22a4.4,4.4,0,0,0,1.58-1.6,4.63,4.63,0,0,0,.58-2.15,5.48,5.48,0,0,0-.46-2.38,5.33,5.33,0,0,0-1.25-1.89,3.73,3.73,0,0,0-1.67-.95,2.67,2.67,0,0,0-1.74.13,2.15,2.15,0,0,0-1.2,1.08,3.56,3.56,0,0,0-.33,1.53,12.64,12.64,0,0,0,.08,1.55l.4,3.6c0,.34.06.76.08,1.25a5.88,5.88,0,0,1-.17,1.53,3.92,3.92,0,0,1-.76,1.51,4.09,4.09,0,0,1-1.67,1.18,4.81,4.81,0,0,1-2.1.4,4.32,4.32,0,0,1-1.93-.57,5.83,5.83,0,0,1-1.67-1.42A8.5,8.5,0,0,1,242.41,91.77Z" transform="translate(-3.19 -3.35)"/><path class="cls-1" d="M253.34,103.31l1.23-.27L257.26,115l-1.22.27Zm3.85-.86,1.23-.28,2.7,11.94-1.23.28Z" transform="translate(-3.19 -3.35)"/><path class="cls-1" d="M251.37,128.28,267,127.2l-2.18-3.12,1.58-.11,2.16,3.12.1,1.39-17.24,1.19Z" transform="translate(-3.19 -3.35)"/><path class="cls-1" d="M268.88,138.51l0,1.44-17.21-4.89,0-1.44Z" transform="translate(-3.19 -3.35)"/><path class="cls-1" d="M251.62,142l1.31.15,6.4,8.61a4.85,4.85,0,0,0,1.68,1.55,5.17,5.17,0,0,0,1.82.5,4,4,0,0,0,2.1-.33,4.09,4.09,0,0,0,1.6-1.31,4,4,0,0,0,.75-2,4,4,0,0,0-.36-2.13,4.25,4.25,0,0,0-1.34-1.6,4,4,0,0,0-2-.72l.14-1.39a5.26,5.26,0,0,1,2.67,1,5.39,5.39,0,0,1,2.19,5,5.3,5.3,0,0,1-1,2.69,5.54,5.54,0,0,1-2.15,1.75,5.37,5.37,0,0,1-2.78.45,6.61,6.61,0,0,1-1.81-.41,5,5,0,0,1-1.44-.88,9.15,9.15,0,0,1-1.28-1.43l-6-8.13.75-.21-1,10-1.35-.14Z" transform="translate(-3.19 -3.35)"/><path class="cls-1" d="M248.11,164.54l15.42,4,1.56-6,1.3.34-3.46,13.32-1.3-.34,1.56-6-15.43-4Z" transform="translate(-3.19 -3.35)"/><path class="cls-1" d="M245.74,173.18l16,6.44-.51,1.28-7.4-3-3.72,9.29,7.39,3-.52,1.29L241,185l.52-1.29,7.4,3,3.72-9.29-7.39-3Z" transform="translate(-3.19 -3.35)"/><path class="cls-1" d="M239.69,187.58,254.8,196l-5.18,9.34-1.17-.65,4.51-8.13-5.74-3.19-3.81,6.88-1.18-.65,3.81-6.88-5.84-3.24-4.51,8.14-1.18-.66Z" transform="translate(-3.19 -3.35)"/><path class="cls-1" d="M226.12,208a7.8,7.8,0,0,1,3.59-2.67,7.08,7.08,0,0,1,4.13-.08,12.76,12.76,0,0,1,7.32,5.84,7.06,7.06,0,0,1,.83,4,7.76,7.76,0,0,1-1.8,4.1,7.44,7.44,0,0,1-4.27,2.85,7.77,7.77,0,0,1-4.86-.61l.62-1.34a6.47,6.47,0,0,0,4,.55,6,6,0,0,0,3.47-2.3,6.08,6.08,0,0,0,1.44-3.36,6,6,0,0,0-.78-3.35,10.53,10.53,0,0,0-2.66-3,10,10,0,0,0-3.53-1.94,5.93,5.93,0,0,0-3.44,0,6.1,6.1,0,0,0-3,2.17,5.88,5.88,0,0,0-1.47,3.89,6.61,6.61,0,0,0,1.41,3.76l-1.16.9a7.8,7.8,0,0,1-1.67-4.6A7.32,7.32,0,0,1,226.12,208Z" transform="translate(-3.19 -3.35)"/><path class="cls-1" d="M215.06,220a7.71,7.71,0,0,1,3.94-2.13,7,7,0,0,1,4.1.5,12.87,12.87,0,0,1,6.42,6.81,7.11,7.11,0,0,1,.25,4.12,8.75,8.75,0,0,1-6.3,5.94,7.09,7.09,0,0,1-4.09-.51,12.68,12.68,0,0,1-6.42-6.81,7.11,7.11,0,0,1-.26-4.12A7.72,7.72,0,0,1,215.06,220Zm.93,1a6.08,6.08,0,0,0-1.91,3.13,5.91,5.91,0,0,0,.31,3.43,10.28,10.28,0,0,0,2.2,3.37,10.59,10.59,0,0,0,3.24,2.41,6,6,0,0,0,3.4.51,6.14,6.14,0,0,0,3.24-1.72,5.63,5.63,0,0,0,1.61-6.55,10.91,10.91,0,0,0-2.2-3.39,10,10,0,0,0-3.22-2.42,5.92,5.92,0,0,0-3.41-.49A6.16,6.16,0,0,0,216,220.94Z" transform="translate(-3.19 -3.35)"/><path class="cls-1" d="M208.1,226.69l10,14.1-1.14.8-16.73-6.29,8.57,12.08-1.13.81-10-14.1,1.13-.8,16.75,6.32L207,227.5Z" transform="translate(-3.19 -3.35)"/><path class="cls-1" d="M191,237.78l7.5,14.06,5.47-2.92.63,1.19-12.15,6.48-.63-1.19,5.47-2.91-7.51-14.06Z" transform="translate(-3.19 -3.35)"/><path class="cls-1" d="M183,241.85l6.3,16.09-9.94,3.9-.49-1.25,8.66-3.39-2.39-6.12L177.8,254l-.49-1.25,7.31-2.87-2.43-6.22L173.53,247l-.49-1.25Z" transform="translate(-3.19 -3.35)"/><path class="cls-1" d="M172.16,246.11l-3.6,10,7.86,6.75-1.62.42-6.72-5.86-3,8.41-1.62.43,3.53-9.74L159,249.58l1.61-.42,6.93,6,3.06-8.66Z" transform="translate(-3.19 -3.35)"/><path class="cls-1" d="M151.88,250.56l2.06,15.81,6.14-.8.18,1.33-13.65,1.78-.18-1.33,6.14-.8-2-15.81Z" transform="translate(-3.19 -3.35)"/><path class="cls-1" d="M132.87,256.54a2.58,2.58,0,0,1,1.33.38,2.65,2.65,0,0,1,.93.95,2.44,2.44,0,0,1,.32,1.34,2.5,2.5,0,0,1-.39,1.33,2.67,2.67,0,0,1-1,.91,2.74,2.74,0,0,1-1.35.3,2.41,2.41,0,0,1-1.25-.38,2.47,2.47,0,0,1-.91-1,2.59,2.59,0,0,1-.31-1.33,2.52,2.52,0,0,1,.38-1.32,2.59,2.59,0,0,1,1-.91A2.48,2.48,0,0,1,132.87,256.54Z" transform="translate(-3.19 -3.35)"/><path class="cls-1" d="M119.74,250.78l-3.66,16.89-1.25-.27L111.14,251l-10.08,13.46-1.3-.29,3.65-16.86,1.32.29-3,13.75L111,248.89l1.1.24,3.31,15.15,3-13.78Z" transform="translate(-3.19 -3.35)"/><path class="cls-1" d="M101.93,246.7l-11.82,14-1.6-.61.36-18.33,1.37.52-.34,17.57-.65-.25,11.31-13.43ZM98,249.88l-.46,1.22L89.26,248l.46-1.23Z" transform="translate(-3.19 -3.35)"/><path class="cls-1" d="M87.39,241l-8,15.31-5.77-3-.47-.27a4,4,0,0,1-.51-.36,4.67,4.67,0,0,1-2-4.13,5.84,5.84,0,0,1,.69-2.37,5.73,5.73,0,0,1,1.56-1.92,4.65,4.65,0,0,1,4.51-.75c.21.07.4.15.58.23a3.91,3.91,0,0,1,.5.23L83,246.33l3.12-6Zm-5,6.52-4.53-2.37-.45-.21c-.18-.07-.35-.14-.54-.2a3.2,3.2,0,0,0-1.73-.05,3.49,3.49,0,0,0-1.47.78,4.67,4.67,0,0,0-1.06,1.35,4.53,4.53,0,0,0-.51,1.64,3.68,3.68,0,0,0,.19,1.65,3.3,3.3,0,0,0,1,1.4,5.09,5.09,0,0,0,.47.34l.43.25,4.52,2.37Z" transform="translate(-3.19 -3.35)"/><path class="cls-1" d="M75.31,234.49l-9.78,14.24L60.16,245a5.36,5.36,0,0,1-.44-.32,5.74,5.74,0,0,1-.47-.41A4.67,4.67,0,0,1,57.8,240a6.29,6.29,0,0,1,2.75-4,4.69,4.69,0,0,1,4.56-.2,5.64,5.64,0,0,1,.55.29c.17.1.33.19.47.29l4.23,2.91,3.81-5.55Zm-5.72,5.88-4.21-2.89-.42-.26a5,5,0,0,0-.52-.26,3.14,3.14,0,0,0-1.71-.26,3.64,3.64,0,0,0-1.55.6,4.66,4.66,0,0,0-1.91,2.79,3.72,3.72,0,0,0,0,1.66,3.31,3.31,0,0,0,.86,1.51,3.88,3.88,0,0,0,.42.39c.15.12.28.22.4.3l4.21,2.89Z" transform="translate(-3.19 -3.35)"/><path class="cls-1" d="M63.87,226.24,53,239.65l-1.07-.87,10.89-13.41Z" transform="translate(-3.19 -3.35)"/><path class="cls-1" d="M60.22,223.41l-12,12.39-1-1,3.16-17.6L40,227.86l-1-1L51,214.5l1,1-3.17,17.62,10.35-10.65Z" transform="translate(-3.19 -3.35)"/><path class="cls-1" d="M45.21,206.79a8.1,8.1,0,0,1,1.55,3,6.64,6.64,0,0,1,.06,3.07,8,8,0,0,1-1.31,2.94,12.14,12.14,0,0,1-2.57,2.67,11.5,11.5,0,0,1-4.26,2.17,7.07,7.07,0,0,1-4.11-.14,7.67,7.67,0,0,1-3.52-2.67,7.14,7.14,0,0,1-1.69-4.15,6.53,6.53,0,0,1,1.08-3.85l1.17.82a5.4,5.4,0,0,0-.81,3.11A5.73,5.73,0,0,0,32.08,217,6.13,6.13,0,0,0,35,219.19a5.89,5.89,0,0,0,3.43,0A10.74,10.74,0,0,0,42,217.33a10,10,0,0,0,2.7-3,6,6,0,0,0,.81-3.35,7.17,7.17,0,0,0-4.08-5.53,4.85,4.85,0,0,0-3-.12,9.21,9.21,0,0,0-3.11,1.57L38,210.3l-1,.78-3.53-4.52a4,4,0,0,1,.43-.4l.35-.28A10.17,10.17,0,0,1,38,204a6.33,6.33,0,0,1,3.78.16A7.56,7.56,0,0,1,45.21,206.79Z" transform="translate(-3.19 -3.35)"/><path class="cls-1" d="M36.85,195.19,22,204l-.7-1.19L36.15,194Z" transform="translate(-3.19 -3.35)"/><path class="cls-1" d="M34.42,191.26l-15.61,7.41L16.6,194l-.41-.88a9.6,9.6,0,0,1-.45-1.22,5.73,5.73,0,0,1-.07-3.54,7.37,7.37,0,0,1,1.91-3,13.09,13.09,0,0,1,7.3-3.47,7.32,7.32,0,0,1,3.55.44,5.74,5.74,0,0,1,2.7,2.3,10.84,10.84,0,0,1,.65,1.13l.43.86Zm-1.85-.73L31,187.19l-.51-1a8.26,8.26,0,0,0-.51-.85,4.78,4.78,0,0,0-2.27-1.79,5.87,5.87,0,0,0-2.88-.22,11.65,11.65,0,0,0-3.23,1,11.58,11.58,0,0,0-2.86,1.86,6,6,0,0,0-1.65,2.38,4.66,4.66,0,0,0,0,2.87c.08.27.19.58.34.95s.3.7.45,1l1.58,3.34Z" transform="translate(-3.19 -3.35)"/><path class="cls-1" d="M28,177.26l-16.4,5.42L8.29,172.54l1.27-.42L12.48,181l6.23-2.06-2.46-7.46,1.27-.42L20,178.47l6.35-2.1-2.92-8.83,1.27-.42Z" transform="translate(-3.19 -3.35)"/><path class="cls-1" d="M24,164.84,7.09,168.18l-.27-1.36,12.61-12.69L4.89,157l-.27-1.37,17-3.34.27,1.37L9.21,166.34l14.56-2.86Z" transform="translate(-3.19 -3.35)"/><path class="cls-1" d="M20.94,144.74,5,145.82,5.46,152l-1.34.08-.93-13.73,1.34-.09L5,144.44l15.9-1.08Z" transform="translate(-3.19 -3.35)"/><path class="cls-1" d="M20.63,135.37l-17.28-.28,0-1.38,17.28.28Z" transform="translate(-3.19 -3.35)"/><path class="cls-1" d="M21.07,126,5.2,124.48l-.57,6.17-1.34-.13,1.27-13.7,1.34.12-.57,6.17,15.87,1.48Z" transform="translate(-3.19 -3.35)"/><path class="cls-1" d="M23.08,112.34,16,110.8,5,114.33l.34-1.56,9.24-3-7.19-6.51.33-1.56,8.55,7.72L23.37,111Z" transform="translate(-3.19 -3.35)"/><path class="cls-1" d="M23.52,93.28a2.59,2.59,0,0,1-.8,1.13,2.55,2.55,0,0,1-1.21.56A2.66,2.66,0,0,1,19,94a2.53,2.53,0,0,1-.53-1.22,2.61,2.61,0,0,1,.16-1.37,2.41,2.41,0,0,1,.77-1.06,2.63,2.63,0,0,1,1.2-.54A2.5,2.5,0,0,1,22,90a2.54,2.54,0,0,1,1.12.8,2.63,2.63,0,0,1,.54,1.2A2.52,2.52,0,0,1,23.52,93.28Z" transform="translate(-3.19 -3.35)"/><path class="cls-1" d="M34.52,81.92a8.3,8.3,0,0,1-2,2.55,6.07,6.07,0,0,1-2.58,1.3,5.65,5.65,0,0,1-2.85-.11l.45-1.36a4.55,4.55,0,0,0,3.3-.41,6,6,0,0,0,2.53-2.63,6.4,6.4,0,0,0,.76-2.38,3.88,3.88,0,0,0-.33-2.06A3.06,3.06,0,0,0,32.4,75.4,2.81,2.81,0,0,0,31.11,75a2.72,2.72,0,0,0-1.11.23,4.41,4.41,0,0,0-.93.58c-.28.23-.53.46-.75.68l-3.18,3.22a7.19,7.19,0,0,1-1.28,1.07,4.65,4.65,0,0,1-1.31.6,3.51,3.51,0,0,1-1.33.09,3.74,3.74,0,0,1-1.37-.45,4,4,0,0,1-1.8-1.8,4.94,4.94,0,0,1-.48-2.56,7.32,7.32,0,0,1,.89-2.92,7.48,7.48,0,0,1,2-2.41,5.65,5.65,0,0,1,5.47-.88l-.45,1.38a4.19,4.19,0,0,0-2.23-.22,4.67,4.67,0,0,0-2.05.91,5.55,5.55,0,0,0-1.54,1.86A5.2,5.2,0,0,0,19,76.59a3.72,3.72,0,0,0,.32,1.88,2.69,2.69,0,0,0,1.2,1.27,2.24,2.24,0,0,0,1.6.26,3.63,3.63,0,0,0,1.39-.72,13.27,13.27,0,0,0,1.15-1l2.54-2.59c.24-.24.55-.53.92-.85A5.39,5.39,0,0,1,29.39,74,3.85,3.85,0,0,1,31,73.6a4.18,4.18,0,0,1,2,.55,4.7,4.7,0,0,1,1.63,1.37,4.29,4.29,0,0,1,.79,1.86,6,6,0,0,1,0,2.19A8.62,8.62,0,0,1,34.52,81.92Z" transform="translate(-3.19 -3.35)"/><path class="cls-1" d="M38.1,74.7,24,64.71l.8-1.12,6.5,4.6L37.07,60l-6.5-4.6.8-1.14,14.11,10-.81,1.14-6.5-4.6L32.39,69l6.5,4.6Z" transform="translate(-3.19 -3.35)"/><path class="cls-1" d="M46.49,63,37.94,46.74l1.16-1.26L56,52.7l-1,1.08L38.8,46.87l.47-.51,8.21,15.52ZM45,58.15l-1-.89,6-6.52,1,.89Z" transform="translate(-3.19 -3.35)"/><path class="cls-1" d="M57.58,51.45,45.9,38.71l1-.93L58.59,50.52Z" transform="translate(-3.19 -3.35)"/><path class="cls-1" d="M60.91,48.25,50.4,34.53l1.11-.85,16.95,5.68-9-11.76,1.11-.85,10.5,13.72-1.1.85L53,35.61,62,47.4Z" transform="translate(-3.19 -3.35)"/><path class="cls-1" d="M72.41,39.53l-3.35-18,1.49-.85,13.94,11.9-1.27.73L69.85,21.88l.6-.35L73.67,38.8Zm0-5-.66-1.13,7.69-4.44.66,1.13Z" transform="translate(-3.19 -3.35)"/><path class="cls-1" d="M95.85,28.23a8.33,8.33,0,0,1-3.2.58,6.28,6.28,0,0,1-2.79-.73,5.57,5.57,0,0,1-2.07-2L89,25.39a4.54,4.54,0,0,0,2.74,1.87,6.09,6.09,0,0,0,3.64-.3,6.41,6.41,0,0,0,2.14-1.28,3.89,3.89,0,0,0,1.12-1.76,3.14,3.14,0,0,0-.1-2,2.87,2.87,0,0,0-.73-1.13,2.77,2.77,0,0,0-1-.56,4.08,4.08,0,0,0-1.09-.18c-.36,0-.7,0-1,0l-4.53.32a7.55,7.55,0,0,1-1.66,0,4.84,4.84,0,0,1-1.38-.42,3.48,3.48,0,0,1-1.06-.81,4.29,4.29,0,0,1-.89-3.78,5,5,0,0,1,1.34-2.25,7.31,7.31,0,0,1,2.6-1.6A7.55,7.55,0,0,1,92.27,11a6,6,0,0,1,2.7.85A5.86,5.86,0,0,1,97,14l-1.24.74a4.35,4.35,0,0,0-1.54-1.64,4.72,4.72,0,0,0-2.13-.67,5.54,5.54,0,0,0-2.4.38A5.3,5.3,0,0,0,87.72,14a3.71,3.71,0,0,0-1,1.62,2.66,2.66,0,0,0,.07,1.74,2.14,2.14,0,0,0,1,1.25,3.84,3.84,0,0,0,1.52.39c.55,0,1.07,0,1.55,0l3.62-.27c.34,0,.76,0,1.25,0a6,6,0,0,1,1.52.23,4,4,0,0,1,1.48.81,4.14,4.14,0,0,1,1.11,1.72,4.68,4.68,0,0,1,.32,2.11,4.25,4.25,0,0,1-.64,1.91A5.75,5.75,0,0,1,98.05,27,8.55,8.55,0,0,1,95.85,28.23Z" transform="translate(-3.19 -3.35)"/><path class="cls-1" d="M109.86,24a7.18,7.18,0,0,1-3.54,0,6,6,0,0,1-2.82-1.68,6.7,6.7,0,0,1-1.62-3.17L99.36,8.33,100.71,8l2.46,10.53a5.76,5.76,0,0,0,1.06,2.34,4.73,4.73,0,0,0,1.65,1.37,5.52,5.52,0,0,0,3.69.46,5.73,5.73,0,0,0,1.66-.7,5.57,5.57,0,0,0,1.45-1.34,4.93,4.93,0,0,0,.86-2,5.66,5.66,0,0,0-.09-2.57L111,5.62l1.35-.32,2.53,10.81a6.75,6.75,0,0,1-.06,3.55A6,6,0,0,1,113,22.42,7.17,7.17,0,0,1,109.86,24Z" transform="translate(-3.19 -3.35)"/><path class="cls-1" d="M119.08,21.73,117.4,4.53l6.49-.63.54,0a4.51,4.51,0,0,1,.63,0,4.72,4.72,0,0,1,2.3.71A4.58,4.58,0,0,1,129,6.28a5.84,5.84,0,0,1,.73,2.35A5.52,5.52,0,0,1,129,12a4.48,4.48,0,0,1-2.65,2.07l-.38.19-6.15.6.65,6.7Zm.59-8.18,5.08-.49.5-.08.56-.12a3.24,3.24,0,0,0,1.48-.91,3.65,3.65,0,0,0,.79-1.46,4.5,4.5,0,0,0,.15-1.72,4.63,4.63,0,0,0-.47-1.64,3.47,3.47,0,0,0-1.07-1.27,3.22,3.22,0,0,0-1.62-.61l-.58,0-.49,0-5.09.5Zm10,7.15L125.6,14l1.21-.76,4.47,7.28Z" transform="translate(-3.19 -3.35)"/><path class="cls-1" d="M133.85,20.65l-.28-17.28,1.38,0,.28,17.28Z" transform="translate(-3.19 -3.35)"/><path class="cls-1" d="M149.63,16.42a2.53,2.53,0,0,1-1.29-.49,2.67,2.67,0,0,1-.85-1,2.39,2.39,0,0,1-.21-1.36,2.45,2.45,0,0,1,.51-1.29,2.57,2.57,0,0,1,2.41-1,2.5,2.5,0,0,1,1.22.47,2.54,2.54,0,0,1,.82,1,2.47,2.47,0,0,1,.2,1.35A2.53,2.53,0,0,1,152,15.4a2.58,2.58,0,0,1-1,.82A2.38,2.38,0,0,1,149.63,16.42Z" transform="translate(-3.19 -3.35)"/></g></g></svg>